# xmcd
#
# Track frame offsets: 
#        150
#        20030
#        40882
#        59442
#        77420
#        95880
#        116490
#        136922
#
# Disc length: 2144 seconds
#
# Revision: 0
# Processed by: cddbd v1.5.2PL0 Copyright (c) Steve Scherf et al.
# Submitted via: ExactAudioCopy v1.1
#
DISCID=67085e08
DTITLE=山崎まさよし - HARVEST ~LIVE SEED FOLKS Special in 葛飾 2014~
DYEAR=2015
DGENRE=Pop
TTITLE0=星空ギター
TTITLE1=アフロディーテ
TTITLE2=ベンジャミン
TTITLE3=やわらかい月
TTITLE4=ツバメ
TTITLE5=花火
TTITLE6=メヌエット
TTITLE7=僕はここにいる
EXTD=
EXTT0=
EXTT1=
EXTT2=
EXTT3=
EXTT4=
EXTT5=
EXTT6=
EXTT7=
PLAYORDER=
